<mxfile host="app.diagrams.net" modified="2021-09-27T01:19:01.922Z" agent="5.0 (Windows NT 10.0; Win64; x64) AppleWebKit/537.36 (KHTML, like Gecko) Chrome/93.0.4577.82 Safari/537.36" etag="4LfLQM_KyjNWEPfkJD50" version="15.3.2" type="github">
  <diagram id="dwVqdOLoBZWX3fJcUKrM" name="Page-1">
    <mxGraphModel dx="1038" dy="588" grid="1" gridSize="10" guides="1" tooltips="1" connect="1" arrows="1" fold="1" page="1" pageScale="1" pageWidth="827" pageHeight="1169" math="0" shadow="0">
      <root>
        <mxCell id="0" />
        <mxCell id="1" value="Region layer" style="" parent="0" />
        <mxCell id="Mvm1oyz63STRThyXKM0V-1" value="" style="rounded=1;whiteSpace=wrap;html=1;strokeColor=#CCCCCC;arcSize=2;fillColor=#f4f3ef;" parent="1" vertex="1">
          <mxGeometry x="25" y="110" width="535" height="510" as="geometry" />
        </mxCell>
        <mxCell id="Mvm1oyz63STRThyXKM0V-2" value="&lt;font color=&quot;#3f3a36&quot; size=&quot;1&quot;&gt;&lt;b style=&quot;font-size: 14px&quot;&gt;Oracle Cloud Infrastructure (Region)&lt;/b&gt;&lt;/font&gt;" style="text;html=1;align=left;verticalAlign=middle;resizable=0;points=[];autosize=1;" parent="1" vertex="1">
          <mxGeometry x="45.00230452674896" y="120" width="260" height="20" as="geometry" />
        </mxCell>
        <mxCell id="Mvm1oyz63STRThyXKM0V-16" value="" style="group" parent="1" vertex="1" connectable="0">
          <mxGeometry x="140" y="240" width="610" height="500" as="geometry" />
        </mxCell>
        <mxCell id="JLlgExNKZI0VBw3Vx1Ag-6" value="&lt;font color=&quot;#3f3a36&quot; size=&quot;1&quot;&gt;&lt;b style=&quot;font-size: 14px&quot;&gt;Location?&lt;/b&gt;&lt;/font&gt;" style="text;html=1;align=right;verticalAlign=middle;resizable=0;points=[];autosize=1;" parent="1" vertex="1">
          <mxGeometry x="450.00230452674896" y="120" width="80" height="20" as="geometry" />
        </mxCell>
        <mxCell id="MoFwSUSyxBEC_ITN7L_5-20" value="" style="shape=image;verticalLabelPosition=bottom;labelBackgroundColor=#ffffff;verticalAlign=top;aspect=fixed;imageAspect=0;image=https://external-content.duckduckgo.com/iu/?u=https%3A%2F%2Fcdn2.downdetector.com%2Fstatic%2Fuploads%2Flogo%2Foracle-cloud.png&amp;f=1&amp;nofb=1;" parent="1" vertex="1">
          <mxGeometry x="30" y="550" width="117.71" height="40" as="geometry" />
        </mxCell>
        <mxCell id="81Sn0bV4Z_akvTFsvdUe-14" value="" style="rounded=1;whiteSpace=wrap;html=1;strokeColor=#CCCCCC;arcSize=8;fillColor=#f4f3ef;" vertex="1" parent="1">
          <mxGeometry x="579" y="110" width="150" height="510" as="geometry" />
        </mxCell>
        <mxCell id="81Sn0bV4Z_akvTFsvdUe-16" value="&lt;font color=&quot;#3f3a36&quot; size=&quot;1&quot;&gt;&lt;span style=&quot;font-size: 14px&quot;&gt;&lt;b&gt;Customer&amp;nbsp;&lt;/b&gt;&lt;br&gt;On-premise&lt;/span&gt;&lt;/font&gt;" style="text;html=1;align=left;verticalAlign=middle;resizable=0;points=[];autosize=1;" vertex="1" parent="1">
          <mxGeometry x="640.002304526749" y="110" width="90" height="40" as="geometry" />
        </mxCell>
        <mxCell id="81Sn0bV4Z_akvTFsvdUe-21" value="" style="shape=image;verticalLabelPosition=bottom;verticalAlign=top;imageAspect=0;aspect=fixed;image=data:image/svg+xml,PHN2ZyB2ZXJzaW9uPSIxLjEiIGlkPSJDdXN0b21lcl9QcmVtaXNlX0FMVCIgeG1sbnM9Imh0dHA6Ly93d3cudzMub3JnLzIwMDAvc3ZnIiB4bWxuczp4bGluaz0iaHR0cDovL3d3dy53My5vcmcvMTk5OS94bGluayIgeD0iMHB4IiB5PSIwcHgiIHZpZXdCb3g9IjAgMCAxNjEuOSAxNjIiIGVuYWJsZS1iYWNrZ3JvdW5kPSJuZXcgMCAwIDE2MS45IDE2MiIgeG1sOnNwYWNlPSJwcmVzZXJ2ZSI+JiN4YTs8Zz4mI3hhOwk8cGF0aCBmaWxsPSIjMzEyRDJBIiBkPSJNNTMuNCwxNy41djI2Ljl2OHY3LjVjMC40LDAsMC45LDAsMS4zLDBjMi4zLDAsNC42LDAuMyw2LjcsMC45di04LjNoNjcuNnYxOC4ySDc1LjQgICBjMS44LDIuNiwzLjEsNS41LDMuOSw4LjZoNDkuOHYxOC4ySDc2LjdjLTEuOCwzLjItNC4yLDUuOS03LjIsOGg2Ny41Vjc5LjJ2LTguNlY1Mi40di04VjE3LjVINTMuNHogTTEyOS4xLDQ0LjRINjEuNFYyNS41aDY3LjYgICBWNDQuNHoiLz4mI3hhOwk8Zz4mI3hhOwkJPGc+JiN4YTsJCQk8Zz4mI3hhOwkJCQk8Y2lyY2xlIGZpbGw9IiMzMTJEMkEiIGN4PSIxMTcuMSIgY3k9Ijg4LjYiIHI9IjMuMyIvPiYjeGE7CQkJPC9nPiYjeGE7CQkJPGc+JiN4YTsJCQkJPGNpcmNsZSBmaWxsPSIjMzEyRDJBIiBjeD0iMTE3LjEiIGN5PSI2MS44IiByPSIzLjMiLz4mI3hhOwkJCTwvZz4mI3hhOwkJCTxnPiYjeGE7CQkJCTxjaXJjbGUgZmlsbD0iIzMxMkQyQSIgY3g9IjExNy4xIiBjeT0iMzUuNCIgcj0iMy4zIi8+JiN4YTsJCQk8L2c+JiN4YTsJCTwvZz4mI3hhOwkJPGc+JiN4YTsJCQk8Zz4mI3hhOwkJCQk8cGF0aCBmaWxsPSIjMzEyRDJBIiBkPSJNNTQuNywxMDUuNGMtMTEuNSwwLTIwLjgtOS4zLTIwLjgtMjAuOGMwLTExLjUsOS4zLTIwLjgsMjAuOC0yMC44YzExLjUsMCwyMC44LDkuMywyMC44LDIwLjggICAgICBDNzUuNiw5Ni4xLDY2LjIsMTA1LjQsNTQuNywxMDUuNHogTTU0LjcsNzIuOGMtNi41LDAtMTEuOCw1LjMtMTEuOCwxMS44YzAsNi41LDUuMywxMS44LDExLjgsMTEuOHMxMS44LTUuMywxMS44LTExLjggICAgICBDNjYuNiw3OC4xLDYxLjMsNzIuOCw1NC43LDcyLjh6Ii8+JiN4YTsJCQk8L2c+JiN4YTsJCQk8Zz4mI3hhOwkJCQk8cGF0aCBmaWxsPSIjMzEyRDJBIiBkPSJNODcuNiwxNDQuOWgtOVYxMzljMC0xMS42LTkuNC0yMS0yMS0yMWgtNS44Yy0xMS42LDAtMjEsOS40LTIxLDIxdjUuOGgtOVYxMzljMC0xNi41LDEzLjQtMzAsMzAtMzBoNS44ICAgICAgYzE2LjUsMCwzMCwxMy40LDMwLDMwVjE0NC45eiIvPiYjeGE7CQkJPC9nPiYjeGE7CQk8L2c+JiN4YTsJPC9nPiYjeGE7PC9nPiYjeGE7PC9zdmc+;fillColor=none;gradientColor=none;html=1;" vertex="1" parent="1">
          <mxGeometry x="590" y="110" width="50" height="50" as="geometry" />
        </mxCell>
        <mxCell id="81Sn0bV4Z_akvTFsvdUe-22" value="CI/CD" style="shape=image;verticalLabelPosition=bottom;verticalAlign=top;imageAspect=0;aspect=fixed;image=data:image/svg+xml,PHN2ZyB2ZXJzaW9uPSIxLjEiIGlkPSJXb3JrRmxvdyIgeG1sbnM9Imh0dHA6Ly93d3cudzMub3JnLzIwMDAvc3ZnIiB4bWxuczp4bGluaz0iaHR0cDovL3d3dy53My5vcmcvMTk5OS94bGluayIgeD0iMHB4IiB5PSIwcHgiIHZpZXdCb3g9IjAgMCAxNjEuOSAxNjIiIGVuYWJsZS1iYWNrZ3JvdW5kPSJuZXcgMCAwIDE2MS45IDE2MiIgeG1sOnNwYWNlPSJwcmVzZXJ2ZSI+JiN4YTs8cGF0aCBmaWxsPSIjMzEyRDJBIiBkPSJNMTUyLjcsNjcuOFYzMmgtMzUuOHYxMi41Yy03LjYsMC41LTE1LjgsNC4xLTE1LjgsMTcuNnYxNC4xSDg3Ljh2MzUuOGgxMi44Yy0xLjIsNy43LTUsMTIuMy0xNS44LDEyLjMgIGMtMTAsMC0xMy00LjgtMTMtMjAuNFY0OS4yYzAtNy43LDAtMzEuMi0yNC42LTMxLjJjLTkuNywwLTE3LjEsNC44LTIxLjMsMTMuOGMtMi44LDYuMS0zLjUsMTIuNS0zLjYsMTYuMUg5djM1LjhoMTMuMlYxMDdoLTEzdjM1LjggIEg0NVYxMDdIMzEuMlY4My43aDEzLjZWNDcuOUgzMS4yQzMxLjUsNDIsMzMuNSwyNyw0Ny4yLDI3YzkuNCwwLDE1LjYsMy44LDE1LjYsMjIuMlYxMDRjMCw5LjYsMCwyOS40LDIyLDI5LjQgIGMxOS45LDAsMjMuOS0xMy4yLDI0LjktMjEuM2gxMy45Vjc2LjNoLTEzLjVWNjIuMWMwLTQuNSwwLjYtOCw2LjgtOC42djE0LjNIMTUyLjd6IE0zNiwxMzMuOEgxOC4yVjExNkgzNlYxMzMuOHogTTM1LjgsNzQuN0gxOCAgVjU2LjloMTcuOFY3NC43eiBNMTE0LjYsMTAzLjFIOTYuOFY4NS4zaDE3LjhWMTAzLjF6IE0xMjUuOSw0MWgxNy44djE3LjhoLTE3LjhWNDF6Ii8+JiN4YTs8L3N2Zz4=;labelBackgroundColor=#F4F3EF;strokeColor=#F4F3EF;strokeWidth=1;fillColor=#DFDDD9;align=center;" vertex="1" parent="1">
          <mxGeometry x="629" y="410" width="50" height="50" as="geometry" />
        </mxCell>
        <mxCell id="81Sn0bV4Z_akvTFsvdUe-23" value="Active Directory" style="pointerEvents=1;shadow=0;dashed=0;html=1;strokeColor=none;fillColor=#505050;labelPosition=center;verticalLabelPosition=bottom;verticalAlign=top;outlineConnect=0;align=center;shape=mxgraph.office.servers.active_directory_federation_services_server_blue;labelBackgroundColor=#F4F3EF;" vertex="1" parent="1">
          <mxGeometry x="636.72" y="330" width="34.55" height="43" as="geometry" />
        </mxCell>
        <mxCell id="81Sn0bV4Z_akvTFsvdUe-24" style="edgeStyle=elbowEdgeStyle;rounded=0;orthogonalLoop=1;jettySize=auto;html=1;endArrow=none;endFill=0;" edge="1" parent="1" source="81Sn0bV4Z_akvTFsvdUe-17" target="MoFwSUSyxBEC_ITN7L_5-14">
          <mxGeometry relative="1" as="geometry" />
        </mxCell>
        <mxCell id="Mvm1oyz63STRThyXKM0V-20" value="Availability domain layer" style="" parent="0" />
        <mxCell id="JLlgExNKZI0VBw3Vx1Ag-20" value="" style="rounded=1;whiteSpace=wrap;html=1;strokeColor=#CCCCCC;arcSize=2;fillColor=#DFDDD9;" parent="Mvm1oyz63STRThyXKM0V-20" vertex="1">
          <mxGeometry x="195" y="170" width="191" height="370" as="geometry" />
        </mxCell>
        <mxCell id="Mvm1oyz63STRThyXKM0V-3" value="" style="rounded=1;whiteSpace=wrap;html=1;strokeColor=#CCCCCC;arcSize=12;fillColor=#DFDDD9;" parent="Mvm1oyz63STRThyXKM0V-20" vertex="1">
          <mxGeometry x="135" y="170" width="50" height="370" as="geometry" />
        </mxCell>
        <mxCell id="Mvm1oyz63STRThyXKM0V-4" value="&lt;font color=&quot;#3f3a36&quot; size=&quot;1&quot;&gt;&lt;b style=&quot;font-size: 13px&quot;&gt;AD 1&lt;/b&gt;&lt;/font&gt;" style="text;html=1;align=center;verticalAlign=middle;resizable=0;points=[];autosize=1;" parent="Mvm1oyz63STRThyXKM0V-20" vertex="1">
          <mxGeometry x="135" y="180" width="50" height="20" as="geometry" />
        </mxCell>
        <mxCell id="JLlgExNKZI0VBw3Vx1Ag-21" value="&lt;font color=&quot;#3f3a36&quot; size=&quot;1&quot;&gt;&lt;b style=&quot;font-size: 13px&quot;&gt;Availability Domain 2&lt;/b&gt;&lt;/font&gt;" style="text;html=1;align=center;verticalAlign=middle;resizable=0;points=[];autosize=1;" parent="Mvm1oyz63STRThyXKM0V-20" vertex="1">
          <mxGeometry x="215" y="180" width="150" height="20" as="geometry" />
        </mxCell>
        <mxCell id="JLlgExNKZI0VBw3Vx1Ag-22" value="" style="rounded=1;whiteSpace=wrap;html=1;strokeColor=#CCCCCC;arcSize=8;fillColor=#DFDDD9;" parent="Mvm1oyz63STRThyXKM0V-20" vertex="1">
          <mxGeometry x="395" y="170" width="50" height="370" as="geometry" />
        </mxCell>
        <mxCell id="JLlgExNKZI0VBw3Vx1Ag-23" value="&lt;font color=&quot;#3f3a36&quot; size=&quot;1&quot;&gt;&lt;b style=&quot;font-size: 13px&quot;&gt;AD 3&lt;/b&gt;&lt;/font&gt;" style="text;html=1;align=center;verticalAlign=middle;resizable=0;points=[];autosize=1;" parent="Mvm1oyz63STRThyXKM0V-20" vertex="1">
          <mxGeometry x="395" y="180" width="50" height="20" as="geometry" />
        </mxCell>
        <mxCell id="JLlgExNKZI0VBw3Vx1Ag-2" value="Labels &amp; comment layer" style="" parent="0" />
        <mxCell id="JLlgExNKZI0VBw3Vx1Ag-3" value="&lt;b style=&quot;color: rgb(63 , 58 , 54) ; font-size: 24px&quot;&gt;IBM BAW Authoring&lt;br&gt;&lt;/b&gt;&lt;span style=&quot;color: rgb(63 , 58 , 54) ; font-size: 22px&quot;&gt;&lt;b&gt;Arquitectura LÃ³gica&lt;/b&gt;&amp;nbsp;&lt;/span&gt;&lt;font color=&quot;#3f3a36&quot;&gt;&lt;br&gt;&lt;/font&gt;" style="text;html=1;strokeColor=none;fillColor=none;align=left;verticalAlign=middle;whiteSpace=wrap;rounded=0;" parent="JLlgExNKZI0VBw3Vx1Ag-2" vertex="1">
          <mxGeometry x="20" y="34" width="560" height="60" as="geometry" />
        </mxCell>
        <mxCell id="Mvm1oyz63STRThyXKM0V-18" value="Networking layer" style="" parent="0" />
        <mxCell id="Mvm1oyz63STRThyXKM0V-7" value="&lt;div style=&quot;text-align: left&quot;&gt;&lt;b style=&quot;font-size: 13px ; color: rgb(189 , 118 , 82)&quot;&gt;Virtual Cloud Network&lt;/b&gt;&lt;br&gt;&lt;/div&gt;" style="text;html=1;align=center;verticalAlign=middle;resizable=0;points=[];autosize=1;rotation=-90;" parent="Mvm1oyz63STRThyXKM0V-18" vertex="1">
          <mxGeometry x="-19" y="436" width="150" height="20" as="geometry" />
        </mxCell>
        <mxCell id="Mvm1oyz63STRThyXKM0V-6" value="" style="rounded=0;whiteSpace=wrap;html=1;fillColor=none;dashed=1;strokeWidth=2;strokeColor=#BC7450;" parent="Mvm1oyz63STRThyXKM0V-18" vertex="1">
          <mxGeometry x="75" y="211.5" width="430" height="318.5" as="geometry" />
        </mxCell>
        <mxCell id="Mvm1oyz63STRThyXKM0V-8" value="" style="rounded=0;whiteSpace=wrap;html=1;fillColor=none;dashed=1;strokeWidth=2;strokeColor=#BC7450;dashPattern=1 1;" parent="Mvm1oyz63STRThyXKM0V-18" vertex="1">
          <mxGeometry x="127" y="223" width="328" height="147" as="geometry" />
        </mxCell>
        <mxCell id="Mvm1oyz63STRThyXKM0V-32" value="&lt;font color=&quot;#bd7652&quot;&gt;&lt;span style=&quot;font-size: 13px&quot;&gt;&lt;b&gt;Public subnet&lt;/b&gt;&lt;/span&gt;&lt;/font&gt;" style="text;html=1;align=left;verticalAlign=middle;resizable=0;points=[];autosize=1;rotation=-90;" parent="Mvm1oyz63STRThyXKM0V-18" vertex="1">
          <mxGeometry x="57" y="309" width="100" height="20" as="geometry" />
        </mxCell>
        <mxCell id="Mvm1oyz63STRThyXKM0V-35" value="" style="shape=image;verticalLabelPosition=bottom;verticalAlign=top;imageAspect=0;aspect=fixed;image=data:image/svg+xml,PHN2ZyB2ZXJzaW9uPSIxLjEiIGlkPSJEUkciIHhtbG5zPSJodHRwOi8vd3d3LnczLm9yZy8yMDAwL3N2ZyIgeG1sbnM6eGxpbms9Imh0dHA6Ly93d3cudzMub3JnLzE5OTkveGxpbmsiIHg9IjBweCIgeT0iMHB4IiB2aWV3Qm94PSIwIDAgMTYxLjkgMTYyIiBlbmFibGUtYmFja2dyb3VuZD0ibmV3IDAgMCAxNjEuOSAxNjIiIHhtbDpzcGFjZT0icHJlc2VydmUiPiYjeGE7PHBhdGggZmlsbD0iIzMxMkQyQSIgZD0iTTE1My41LDY4LjJjMC0xMC41LTguNS0xOS0xOS0xOWMtMy45LDAtNy41LDEuMi0xMC41LDMuMkw5OC43LDMzLjljMC4zLTEuNCwwLjUtMi44LDAuNS00LjMgIGMwLTEwLjUtOC41LTE5LTE5LTE5cy0xOSw4LjUtMTksMTljMCwxLjcsMC4yLDMuMywwLjcsNC45TDM3LjcsNTIuMWMtMi45LTEuOC02LjQtMi45LTEwLTIuOWMtMTAuNSwwLTE5LDguNS0xOSwxOSAgYzAsMTAsNy43LDE4LjEsMTcuNSwxOC45bDkuMiwyOC4yYy00LjgsMy41LTgsOS4xLTgsMTUuNGMwLDEwLjUsOC41LDE5LDE5LDE5YzcuOSwwLDE0LjgtNC45LDE3LjYtMTEuOWgzNC4zICBjMi44LDYuOSw5LjYsMTEuOSwxNy42LDExLjljMTAuNSwwLDE5LTguNSwxOS0xOWMwLTYuNy0zLjUtMTIuNS04LjctMTUuOWw5LTI3LjdDMTQ1LjMsODYuOCwxNTMuNSw3OC40LDE1My41LDY4LjJ6IE0xMzQuNSw1OS4yICBjNSwwLDksNCw5LDlzLTQsOS05LDlzLTktNC05LTlTMTI5LjYsNTkuMiwxMzQuNSw1OS4yeiBNMTE4LjQsNTguMmMtMS44LDIuOS0yLjksNi4zLTIuOSwxMGMwLDAuNiwwLDEuMiwwLjEsMS44TDk2LjcsNzYgIGMtMi42LTQuNS02LjktNy44LTEyLTkuMVY0OC4xYzQuMi0xLDcuOS0zLjUsMTAuNS02LjhMMTE4LjQsNTguMnogTTYwLjgsMTE4LjRsMTEuOS0xNS42YzIuMywxLDQuOCwxLjUsNy41LDEuNSAgYzMuMiwwLDYuMi0wLjgsOC44LTIuMmwxMi40LDE2LjJjLTIuNywzLjEtNC4zLDcuMS00LjUsMTEuNUg2NS4zQzY1LjEsMTI1LjUsNjMuNCwxMjEuNSw2MC44LDExOC40eiBNODAuMiw3Ni40YzUsMCw5LDQsOSw5ICBzLTQsOS05LDljLTUsMC05LTQtOS05Uzc1LjIsNzYuNCw4MC4yLDc2LjR6IE04MC4yLDIwLjZjNSwwLDksNCw5LDlzLTQsOS05LDljLTUsMC05LTQtOS05Uzc1LjIsMjAuNiw4MC4yLDIwLjZ6IE03Ni43LDQ4LjN2MTguNCAgYy01LjMsMS05LjksNC4yLTEyLjYsOC43bC0xNy40LTYuMWMwLTAuNCwwLjEtMC44LDAuMS0xLjJjMC0zLjktMS4yLTcuNC0zLjEtMTAuNGwyMi0xNkM2OC4zLDQ1LjEsNzIuMiw0Ny41LDc2LjcsNDguM3ogTTE4LjcsNjguMiAgYzAtNSw0LTksOS05czksNCw5LDlzLTQsOS05LDlTMTguNyw3My4xLDE4LjcsNjguMnogTTM0LjIsODZjNC40LTEuNiw4LjEtNC44LDEwLjMtOC45TDYxLjMsODNjLTAuMSwwLjgtMC4yLDEuNi0wLjIsMi40ICBjMCw0LjksMS45LDkuNCw1LDEyLjhsLTExLjgsMTUuNGMtMi41LTEuMi01LjItMS44LTguMS0xLjhjLTEuMywwLTIuNSwwLjEtMy43LDAuNEwzNC4yLDg2eiBNNDYuMywxMzkuOGMtNSwwLTktNC05LTlzNC05LDktOSAgczksNCw5LDlTNTEuMywxMzkuOCw0Ni4zLDEzOS44eiBNMTE1LjgsMTM5LjhjLTUsMC05LTQtOS05czQtOSw5LTlzOSw0LDksOVMxMjAuOCwxMzkuOCwxMTUuOCwxMzkuOHogTTExNS44LDExMS43ICBjLTIuOSwwLTUuNiwwLjctOC4xLDEuOEw5NS4xLDk3LjFjMi41LTMuMiw0LTcuMyw0LTExLjdjMC0wLjYsMC0xLjItMC4xLTEuN2wxOC45LTYuMWMyLjEsMy42LDUuMyw2LjUsOS4yLDguMmwtOC41LDI2LjMgIEMxMTcuOCwxMTEuOCwxMTYuOCwxMTEuNywxMTUuOCwxMTEuN3oiLz4mI3hhOzwvc3ZnPg==;dashed=1;dashPattern=1 1;strokeColor=#BC7450;strokeWidth=2;fillColor=none;imageBackground=#F4F3EF;" parent="Mvm1oyz63STRThyXKM0V-18" vertex="1">
          <mxGeometry x="55" y="193" width="40" height="40" as="geometry" />
        </mxCell>
        <mxCell id="JLlgExNKZI0VBw3Vx1Ag-41" value="Public LB&#xa;10Mbps-Micro" style="shape=image;verticalLabelPosition=bottom;verticalAlign=top;imageAspect=0;aspect=fixed;image=data:image/svg+xml,PHN2ZyB2ZXJzaW9uPSIxLjEiIGlkPSJMb2FkX0JhbGFuY2VyIiB4bWxucz0iaHR0cDovL3d3dy53My5vcmcvMjAwMC9zdmciIHhtbG5zOnhsaW5rPSJodHRwOi8vd3d3LnczLm9yZy8xOTk5L3hsaW5rIiB4PSIwcHgiIHk9IjBweCIgdmlld0JveD0iMCAwIDE2MS45IDE2MiIgZW5hYmxlLWJhY2tncm91bmQ9Im5ldyAwIDAgMTYxLjkgMTYyIiB4bWw6c3BhY2U9InByZXNlcnZlIj4mI3hhOzxwYXRoIGZpbGw9IiMzMTJEMkEiIGQ9Ik0xMjIuNSwxMTIuOEw5Mi42LDg0LjdoMzYuMnY2LjZsMTgtOS45bC0xOC05Ljl2NS4ySDkyLjNsMzAuMi0yOC40bDQuMSw0LjRsNi4zLTE5LjZMMTEzLDM4LjJsNCw0LjIgIEw4OCw2OS43VjMwLjZIMjguOHY0Ni4xSDExLjF2OGgxNy43djQ2LjlIODhWOTEuM2wyOSwyNy4zbC00LDQuMmwxOS45LDUuMWwtNi4zLTE5LjZMMTIyLjUsMTEyLjh6IE03OSwxMjIuNUgzNy44Vjg0LjdoMjIuN3Y2LjYgIGwxOC05LjlsLTE4LTkuOXY1LjJIMzcuOFYzOS42SDc5VjEyMi41eiIvPiYjeGE7PC9zdmc+;dashed=1;dashPattern=1 4;labelBackgroundColor=none;strokeColor=#03698d;strokeWidth=2;fillColor=none;align=center;imageBackground=#DFDDD9;" parent="Mvm1oyz63STRThyXKM0V-18" vertex="1">
          <mxGeometry x="319" y="259" width="37" height="38" as="geometry" />
        </mxCell>
        <mxCell id="MoFwSUSyxBEC_ITN7L_5-29" style="edgeStyle=orthogonalEdgeStyle;rounded=0;orthogonalLoop=1;jettySize=auto;html=1;entryX=1;entryY=0.5;entryDx=0;entryDy=0;endArrow=none;endFill=0;" parent="Mvm1oyz63STRThyXKM0V-18" target="JLlgExNKZI0VBw3Vx1Ag-41" edge="1">
          <mxGeometry relative="1" as="geometry">
            <mxPoint x="530" y="278" as="sourcePoint" />
          </mxGeometry>
        </mxCell>
        <mxCell id="5z3BjopYQKt2J5N__x-G-5" value="Internet&#xa;Gateway" style="shape=image;verticalLabelPosition=bottom;verticalAlign=top;imageAspect=0;aspect=fixed;image=data:image/svg+xml,PHN2ZyB2ZXJzaW9uPSIxLjEiIGlkPSJJbnRlcm5ldF9HYXRld2F5IiB4bWxucz0iaHR0cDovL3d3dy53My5vcmcvMjAwMC9zdmciIHhtbG5zOnhsaW5rPSJodHRwOi8vd3d3LnczLm9yZy8xOTk5L3hsaW5rIiB4PSIwcHgiIHk9IjBweCIgdmlld0JveD0iMCAwIDE2MS45IDE2MiIgZW5hYmxlLWJhY2tncm91bmQ9Im5ldyAwIDAgMTYxLjkgMTYyIiB4bWw6c3BhY2U9InByZXNlcnZlIj4mI3hhOzxnPiYjeGE7CTxyZWN0IHg9Ijc3LjQiIHk9IjcxLjkiIGZpbGw9IiMzMTJEMkEiIHdpZHRoPSI2LjMiIGhlaWdodD0iMi44Ii8+JiN4YTsJPHJlY3QgeD0iNzcuNCIgeT0iNjYuMyIgZmlsbD0iIzMxMkQyQSIgd2lkdGg9IjYuMyIgaGVpZ2h0PSIyLjgiLz4mI3hhOwk8cGF0aCBmaWxsPSIjMzEyRDJBIiBkPSJNMTA0LjcsMjkuNGMtMi40LTQuNy03LjktMTAuMi0xNy4zLTguOGMtMy41LTMuNS0xMC4yLTcuNC0xOC44LTQuOWMtMS40LDAuMy03LjgsMi40LTExLjEsMTAuNSAgIEM1MiwyNy41LDQ0LjEsMzIsNDIuMiw0Mi44bDAsMC4yYzAsMC4zLTEsOC4xLDMuOSwxNC4xYzMuMSwzLjgsNy43LDUuOSwxMy42LDYuNGwwLjEsMGw0Mi41LDBjMC4xLDAsMC4yLDAsMC4yLDAgICBjNSwwLDE0LjgtMy4zLDE2LjktMTYuMmwwLTAuNEMxMTkuOSw0MS42LDExNy4xLDMxLjYsMTA0LjcsMjkuNHogTTEwMi40LDU1LjlIODMuNXYtOS40aDkuNEw4MC40LDMwLjRMNjguMyw0Ni42aDguOXY5LjRINjAuMSAgIGMtMy43LTAuMy02LjQtMS41LTguMS0zLjZjLTIuNy0zLjItMi40LTcuOC0yLjMtOC40YzEuOC05LjYsMTAtMTAuNiwxMC45LTEwLjdsMi42LTAuMmwwLjctMi41YzEuOC02LjQsNi4yLTcuNSw2LjMtNy41bDAuMy0wLjEgICBjNy41LTIuMiwxMS44LDMuMywxMi4yLDMuOWwxLjUsMi4ybDIuNS0wLjdjOC41LTIuMiwxMS4xLDQuMywxMS42LDUuNmwwLjgsMi40bDIuNSwwLjJjOS44LDAuOCwxMC4zLDcuOSwxMC4zLDkuNiAgIEMxMTAuMyw1NS43LDEwMy4zLDU1LjksMTAyLjQsNTUuOXoiLz4mI3hhOwk8cG9seWdvbiBmaWxsPSIjMzEyRDJBIiBwb2ludHM9Ijc0LjMsMTAwLjYgNzcuNSwxMDAuNiA3Ny41LDEyMy40IDc0LjIsMTIzLjQgODAuNiwxMzUgODcsMTIzLjQgODMuOCwxMjMuNCA4My44LDEwMC42IDg3LDEwMC42ICAgIDgwLjYsODkuMSAgIi8+JiN4YTsJPHBhdGggZmlsbD0iIzMxMkQyQSIgZD0iTTgwLjUsNzcuMWMtMTksMC0zNC41LDE1LjctMzQuNSwzNXMxNS41LDM1LDM0LjUsMzVjMTksMCwzNC41LTE1LjcsMzQuNS0zNVM5OS41LDc3LjEsODAuNSw3Ny4xeiAgICBNODYuNCwxMTIuMWwxMS42LDYuNHYtMy4yaDkuMmMtMS41LDEzLjctMTMsMjQuNC0yNi44LDI0LjRjLTEzLjksMC0yNS4zLTEwLjctMjYuOC0yNC40aDkuN3YzLjJMNzUsMTEybC0xMS42LTYuNHYzLjJoLTkuNyAgIGMxLjYtMTMuNiwxMy0yNC4zLDI2LjgtMjQuM2MxMy44LDAsMjUuMiwxMC42LDI2LjgsMjQuM0g5OHYtMy4yTDg2LjQsMTEyLjF6Ii8+JiN4YTs8L2c+JiN4YTs8L3N2Zz4=;labelBackgroundColor=#F4F3EF;imageBackground=#F4F3EF;" parent="Mvm1oyz63STRThyXKM0V-18" vertex="1">
          <mxGeometry x="471" y="232" width="69" height="68" as="geometry" />
        </mxCell>
        <mxCell id="81Sn0bV4Z_akvTFsvdUe-10" value="" style="rounded=0;whiteSpace=wrap;html=1;fillColor=none;dashed=1;strokeWidth=2;strokeColor=#BC7450;dashPattern=1 1;" vertex="1" parent="Mvm1oyz63STRThyXKM0V-18">
          <mxGeometry x="127" y="375" width="328" height="147" as="geometry" />
        </mxCell>
        <mxCell id="81Sn0bV4Z_akvTFsvdUe-11" value="&lt;font color=&quot;#bd7652&quot;&gt;&lt;span style=&quot;font-size: 13px&quot;&gt;&lt;b&gt;Private subnet&lt;/b&gt;&lt;/span&gt;&lt;/font&gt;" style="text;html=1;align=left;verticalAlign=middle;resizable=0;points=[];autosize=1;rotation=-90;" vertex="1" parent="Mvm1oyz63STRThyXKM0V-18">
          <mxGeometry x="57" y="436" width="110" height="20" as="geometry" />
        </mxCell>
        <mxCell id="81Sn0bV4Z_akvTFsvdUe-19" style="edgeStyle=orthogonalEdgeStyle;rounded=0;orthogonalLoop=1;jettySize=auto;html=1;endArrow=none;endFill=0;exitX=0.5;exitY=0;exitDx=0;exitDy=0;" edge="1" parent="Mvm1oyz63STRThyXKM0V-18" source="81Sn0bV4Z_akvTFsvdUe-17">
          <mxGeometry relative="1" as="geometry">
            <mxPoint x="530" y="560" as="sourcePoint" />
            <mxPoint x="532" y="280" as="targetPoint" />
          </mxGeometry>
        </mxCell>
        <mxCell id="81Sn0bV4Z_akvTFsvdUe-17" value="VPN Connect" style="shape=image;verticalLabelPosition=bottom;verticalAlign=top;imageAspect=0;aspect=fixed;image=data:image/svg+xml,PHN2ZyB2ZXJzaW9uPSIxLjEiIGlkPSJWUE4iIHhtbG5zPSJodHRwOi8vd3d3LnczLm9yZy8yMDAwL3N2ZyIgeG1sbnM6eGxpbms9Imh0dHA6Ly93d3cudzMub3JnLzE5OTkveGxpbmsiIHg9IjBweCIgeT0iMHB4IiB2aWV3Qm94PSIwIDAgMTYxLjkgMTYyIiBlbmFibGUtYmFja2dyb3VuZD0ibmV3IDAgMCAxNjEuOSAxNjIiIHhtbDpzcGFjZT0icHJlc2VydmUiPiYjeGE7PHBhdGggZmlsbD0iIzMxMkQyQSIgZD0iTTkyLjMsMTExLjhINjkuNWwyLjctMTkuNGMtMy40LTIuNi01LjMtNi42LTUuMy0xMC45YzAtNy44LDYuMy0xNC4xLDE0LjEtMTQuMWM3LjgsMCwxNC4xLDYuMywxNC4xLDE0LjEgIGwwLDAuMWMtMC4xLDQuMi0yLDguMS01LjMsMTAuOEw5Mi4zLDExMS44eiBNNzYuNCwxMDUuOGg5LjFsLTIuMi0xNi40bDEuNy0xYzIuNS0xLjUsNC00LjEsNC4xLTYuOWMwLTQuNC0zLjctOC04LjEtOCAgYy00LjQsMC04LjEsMy42LTguMSw4LjFjMCwyLjksMS41LDUuNCw0LDYuOWwxLjcsMUw3Ni40LDEwNS44eiBNMTQ2LjcsODAuOEwxMjYsNjQuNHYxMy40aC02LjNsMC0yNC43aC0xMy42di01LjIgIGMwLTEzLjQtMTEuMy0yNC4zLTI1LjItMjQuM2MtMTMuOSwwLTI1LjIsMTAuOS0yNS4yLDI0LjN2NS4ySDQyLjJ2MjQuN2gtNi41VjY0LjRMMTUsODAuOGwyMC43LDE2LjZWODQuOGg2LjV2MzEuMUw4MSwxMzMuMiAgbDM4LjYtMTguM2wwLTMwLjFoNi4zdjEyLjZMMTQ2LjcsODAuOHogTTEzMSw3NC43bDcuNyw2LjFMMTMxLDg3Vjc0Ljd6IE0zMC43LDg3TDIzLDgwLjhsNy43LTYuMVY4N3ogTTYzLjgsNDcuOSAgYzAtOSw3LjctMTYuMywxNy4yLTE2LjNzMTcuMiw3LjMsMTcuMiwxNi4zdjUuMkg2My44VjQ3Ljl6IE0xMTEuNiwxMDkuOGwtMzAuNywxNC42bC0zMC43LTEzLjdWNjEuMWg2MS41TDExMS42LDEwOS44eiBNMTA3LjksNzYuOCAgaC0zLjd2OWgzLjdWNzYuOHogTTEwMC45LDc2LjhoLTMuN3Y5aDMuN1Y3Ni44eiBNNjQuMSw3Ni44aC0zLjd2OWgzLjdWNzYuOHogTTU3LjEsNzYuOGgtMy43djloMy43Vjc2Ljh6Ii8+JiN4YTs8L3N2Zz4=;dashed=1;dashPattern=1 1;strokeColor=#BC7450;strokeWidth=2;fillColor=#DFDDD9;labelBackgroundColor=#F4F3EF;labelBorderColor=none;" vertex="1" parent="Mvm1oyz63STRThyXKM0V-18">
          <mxGeometry x="496" y="535" width="50" height="50" as="geometry" />
        </mxCell>
        <mxCell id="Mvm1oyz63STRThyXKM0V-19" value="Compute &amp; service layer" style="" parent="0" />
        <mxCell id="MoFwSUSyxBEC_ITN7L_5-4" style="edgeStyle=orthogonalEdgeStyle;rounded=0;orthogonalLoop=1;jettySize=auto;html=1;exitX=0;exitY=0.5;exitDx=0;exitDy=0;entryX=1;entryY=0.5;entryDx=0;entryDy=0;endArrow=none;endFill=0;" parent="Mvm1oyz63STRThyXKM0V-19" source="JLlgExNKZI0VBw3Vx1Ag-41" target="MoFwSUSyxBEC_ITN7L_5-1" edge="1">
          <mxGeometry relative="1" as="geometry" />
        </mxCell>
        <mxCell id="MoFwSUSyxBEC_ITN7L_5-1" value="VM&#xa;BAW Authoring" style="shape=image;verticalLabelPosition=bottom;verticalAlign=top;imageAspect=0;aspect=fixed;image=data:image/svg+xml,PHN2ZyB2ZXJzaW9uPSIxLjEiIGlkPSJWTSIgeG1sbnM9Imh0dHA6Ly93d3cudzMub3JnLzIwMDAvc3ZnIiB4bWxuczp4bGluaz0iaHR0cDovL3d3dy53My5vcmcvMTk5OS94bGluayIgeD0iMHB4IiB5PSIwcHgiIHZpZXdCb3g9IjAgMCAxNjEuOSAxNjIiIGVuYWJsZS1iYWNrZ3JvdW5kPSJuZXcgMCAwIDE2MS45IDE2MiIgeG1sOnNwYWNlPSJwcmVzZXJ2ZSI+JiN4YTs8cGF0aCBmaWxsPSIjMzEyRDJBIiBkPSJNNjAuNCw5MC45SDMzLjdWNjQuMWgyNi43VjkwLjl6IE00MC43LDgzLjloMTIuN1Y3MS4xSDQwLjdWODMuOXogTTEyNy42LDkwLjloLTI2LjdWNjQuMWgyNi43VjkwLjl6ICAgTTEwNy44LDgzLjloMTIuN1Y3MS4xaC0xMi43VjgzLjl6IE05My45LDkwLjlINjcuMlY2NC4xaDI2LjdWOTAuOXogTTc0LjIsODMuOWgxMi43VjcxLjFINzQuMlY4My45eiBNNjAuNCw1Ny44SDMzLjdWMzEuMWgyNi43ICBWNTcuOHogTTQwLjcsNTAuOGgxMi43VjM4LjFINDAuN1Y1MC44eiBNMTI3LjYsNTcuOGgtMjYuN1YzMS4xaDI2LjdWNTcuOHogTTEwNy44LDUwLjhoMTIuN1YzOC4xaC0xMi43VjUwLjh6IE05My45LDU3LjhINjcuMlYzMS4xICBoMjYuN1Y1Ny44eiBNNzQuMiw1MC44aDEyLjdWMzguMUg3NC4yVjUwLjh6IE0xNTIuOCwxNTIuOUg5VjkuMmgxNDMuOFYxNTIuOXogTTE4LDE0My45aDEyNS44VjE4LjJIMThWMTQzLjl6IE0xMjkuMSwxMzIuM0gzMi45ICBWOTcuNGg5Ni4zVjEzMi4zeiBNNDEuOSwxMjMuM2g3OC4zdi0xNi45SDQxLjlWMTIzLjN6IE0xMDUuOCwxMTAuMmMtMi42LDAtNC43LDIuMS00LjcsNC43YzAsMi42LDIuMSw0LjcsNC43LDQuNyAgYzIuNiwwLDQuNy0yLjEsNC43LTQuN0MxMTAuNSwxMTIuMywxMDguNCwxMTAuMiwxMDUuOCwxMTAuMnoiLz4mI3hhOzwvc3ZnPg==;labelBackgroundColor=#dfddd9;" parent="Mvm1oyz63STRThyXKM0V-19" vertex="1">
          <mxGeometry x="226" y="260" width="36" height="36" as="geometry" />
        </mxCell>
        <mxCell id="MoFwSUSyxBEC_ITN7L_5-14" value="" style="shape=image;verticalLabelPosition=bottom;verticalAlign=top;imageAspect=0;aspect=fixed;image=data:image/svg+xml,PHN2ZyB2ZXJzaW9uPSIxLjEiIGlkPSJHcm91cHMiIHhtbG5zPSJodHRwOi8vd3d3LnczLm9yZy8yMDAwL3N2ZyIgeG1sbnM6eGxpbms9Imh0dHA6Ly93d3cudzMub3JnLzE5OTkveGxpbmsiIHg9IjBweCIgeT0iMHB4IiB2aWV3Qm94PSIwIDAgMTYxLjkgMTYyIiBlbmFibGUtYmFja2dyb3VuZD0ibmV3IDAgMCAxNjEuOSAxNjIiIHhtbDpzcGFjZT0icHJlc2VydmUiPiYjeGE7PHBhdGggZmlsbD0iIzMxMkQyQSIgZD0iTTEyOC4xLDg2LjVjLTguOCwwLTE1LjktNy4xLTE1LjktMTUuOXM3LjEtMTUuOSwxNS45LTE1LjljOC44LDAsMTUuOSw3LjEsMTUuOSwxNS45UzEzNi44LDg2LjUsMTI4LjEsODYuNXogICBNMTI4LjEsNjIuN2MtNC4zLDAtNy45LDMuNS03LjksNy45czMuNSw3LjksNy45LDcuOWM0LjMsMCw3LjktMy41LDcuOS03LjlTMTMyLjQsNjIuNywxMjguMSw2Mi43eiBNMzMuNyw4Ni45ICBjLTguOCwwLTE1LjktNy4xLTE1LjktMTUuOVMyNSw1NS4yLDMzLjcsNTUuMnMxNS45LDcuMSwxNS45LDE1LjlTNDIuNSw4Ni45LDMzLjcsODYuOXogTTMzLjcsNjMuMmMtNC4zLDAtNy45LDMuNS03LjksNy45ICBzMy41LDcuOSw3LjksNy45czcuOS0zLjUsNy45LTcuOVMzOC4xLDYzLjIsMzMuNyw2My4yeiBNMTAzLjQsMTI0LjhoOHYwTDEwMy40LDEyNC44TDEwMy40LDEyNC44eiBNMTMwLjIsOTAuNWgtNC4yICBjLTUuNSwwLTEwLjYsMi0xNC41LDUuM2MxLjcsMi4xLDMuMSw0LjQsNC4zLDYuOWMyLjYtMi42LDYuMi00LjIsMTAuMi00LjJoNC4yYzgsMCwxNC41LDYuNSwxNC41LDE0LjV2MTEuOGg4VjExMyAgQzE1Mi43LDEwMC42LDE0Mi42LDkwLjUsMTMwLjIsOTAuNXogTTM1LjgsOTAuNWgtNC4yYy0xMi40LDAtMjIuNSwxMC4xLTIyLjUsMjIuNXYxMS44aDhWMTEzYzAtOCw2LjUtMTQuNSwxNC41LTE0LjVoNC4yICBjNC4xLDAsNy44LDEuNywxMC41LDQuNWMxLjEtMi41LDIuNi00LjgsNC4zLTdDNDYuNiw5Mi42LDQxLjUsOTAuNSwzNS44LDkwLjV6IE01MC40LDEyNC44aDh2MEw1MC40LDEyNC44TDUwLjQsMTI0Ljh6IE04MS4xLDgzLjYgIGMtMTEuNywwLTIxLjEtOS41LTIxLjEtMjEuMXM5LjUtMjEuMSwyMS4xLTIxLjFjMTEuNywwLDIxLjEsOS41LDIxLjEsMjEuMVM5Mi43LDgzLjYsODEuMSw4My42eiBNODEuMSw1MC4zICBjLTYuNywwLTEyLjEsNS40LTEyLjEsMTIuMXM1LjQsMTIuMSwxMi4xLDEyLjFzMTIuMS01LjQsMTIuMS0xMi4xUzg3LjgsNTAuMyw4MS4xLDUwLjN6IE0xMTQuNSwxMTguOWMwLTE2LjgtMTMuNy0zMC41LTMwLjUtMzAuNSAgaC02Yy0xNi44LDAtMzAuNSwxMy43LTMwLjUsMzAuNXY2aDl2LTZjMC0xMS44LDkuNi0yMS41LDIxLjUtMjEuNWg2YzExLjgsMCwyMS41LDkuNiwyMS41LDIxLjV2Nmg5VjExOC45eiIvPiYjeGE7PC9zdmc+;labelBackgroundColor=none;" parent="Mvm1oyz63STRThyXKM0V-19" vertex="1">
          <mxGeometry x="628" y="510" width="62" height="62" as="geometry" />
        </mxCell>
        <mxCell id="MoFwSUSyxBEC_ITN7L_5-31" value="BAW&lt;br&gt;Authors" style="text;html=1;align=center;verticalAlign=middle;resizable=0;points=[];autosize=1;" parent="Mvm1oyz63STRThyXKM0V-19" vertex="1">
          <mxGeometry x="633" y="560" width="60" height="30" as="geometry" />
        </mxCell>
        <mxCell id="81Sn0bV4Z_akvTFsvdUe-6" value="BAW&#xa;Metadata&#xa;Database" style="shape=image;verticalLabelPosition=bottom;verticalAlign=top;imageAspect=0;aspect=fixed;image=data:image/svg+xml,PHN2ZyB2ZXJzaW9uPSIxLjEiIGlkPSJEYXRhYmFzZV9TZXJ2aWNlIiB4bWxucz0iaHR0cDovL3d3dy53My5vcmcvMjAwMC9zdmciIHhtbG5zOnhsaW5rPSJodHRwOi8vd3d3LnczLm9yZy8xOTk5L3hsaW5rIiB4PSIwcHgiIHk9IjBweCIgdmlld0JveD0iMCAwIDE2MS45IDE2MiIgZW5hYmxlLWJhY2tncm91bmQ9Im5ldyAwIDAgMTYxLjkgMTYyIiB4bWw6c3BhY2U9InByZXNlcnZlIj4mI3hhOzxwYXRoIGZpbGw9IiMzMTJEMkEiIGQ9Ik0xNTEuNiw5OS45VjYyLjFoLTM3Ljh2MTQuMmgtMTMuOFY2Mi4xSDg1LjVWNDcuNkgxMDBWOS44SDYyLjJ2MzcuOGgxNC4ydjE0LjZINjIuM3YxNC4ySDQ3LjJWNjIuMUg5LjQgIHYzNy44aDE0LjV2MTQuN0g5LjZ2MzcuOGgzNy44di0zNy44SDMyLjlWOTkuOWgxNC4zVjg1LjNoMTUuMXYxNC42aDE0LjJWMTM2aDM3LjN2MTYuNGgzNy44di0zNy44aC0xNC40Vjk5LjlIMTUxLjZ6IE03MS4yLDE4LjhIOTEgIHYxOS44SDcxLjJWMTguOHogTTM4LjQsMTQzLjRIMTguNnYtMTkuOGgxOS44VjE0My40eiBNMzguMiw5MC45SDE4LjRWNzEuMWgxOS44VjkwLjl6IE0xMjIuOCw3MS4xaDE5Ljh2MTkuOGgtMTkuOFY3MS4xeiAgIE03MS4zLDcxLjFoMTkuOHYxOS44SDcxLjNWNzEuMXogTTE0Mi42LDE0My40aC0xOS44di0xOS44aDE5LjhWMTQzLjR6IE0xMjguMiwxMTQuNmgtMTQuNFYxMjdIODUuNVY5OS45aDE0LjZWODUuM2gxMy44djE0LjZoMTQuNCAgVjExNC42eiIvPiYjeGE7PC9zdmc+" vertex="1" parent="Mvm1oyz63STRThyXKM0V-19">
          <mxGeometry x="242" y="410" width="40" height="40" as="geometry" />
        </mxCell>
        <mxCell id="81Sn0bV4Z_akvTFsvdUe-9" style="edgeStyle=orthogonalEdgeStyle;orthogonalLoop=1;jettySize=auto;html=1;startArrow=none;startFill=0;endArrow=none;endFill=0;strokeColor=#330000;entryX=0.463;entryY=1.05;entryDx=0;entryDy=0;entryPerimeter=0;" edge="1" parent="Mvm1oyz63STRThyXKM0V-19">
          <mxGeometry relative="1" as="geometry">
            <mxPoint x="262" y="418" as="sourcePoint" />
            <mxPoint x="244.04000000000002" y="294" as="targetPoint" />
            <Array as="points">
              <mxPoint x="261.8" y="370" />
              <mxPoint x="243.8" y="370" />
            </Array>
          </mxGeometry>
        </mxCell>
        <mxCell id="81Sn0bV4Z_akvTFsvdUe-26" style="edgeStyle=orthogonalEdgeStyle;curved=1;rounded=0;orthogonalLoop=1;jettySize=auto;html=1;entryX=1;entryY=1;entryDx=0;entryDy=0;dashed=1;dashPattern=1 2;endArrow=none;endFill=0;" edge="1" parent="Mvm1oyz63STRThyXKM0V-19" source="81Sn0bV4Z_akvTFsvdUe-22" target="MoFwSUSyxBEC_ITN7L_5-1">
          <mxGeometry relative="1" as="geometry" />
        </mxCell>
        <mxCell id="81Sn0bV4Z_akvTFsvdUe-27" style="edgeStyle=orthogonalEdgeStyle;curved=1;rounded=0;orthogonalLoop=1;jettySize=auto;html=1;dashed=1;dashPattern=1 2;endArrow=none;endFill=0;" edge="1" parent="Mvm1oyz63STRThyXKM0V-19" source="81Sn0bV4Z_akvTFsvdUe-23">
          <mxGeometry relative="1" as="geometry">
            <mxPoint x="260" y="300" as="targetPoint" />
          </mxGeometry>
        </mxCell>
      </root>
    </mxGraphModel>
  </diagram>
</mxfile>
